<?xml version="1.0" encoding="UTF-8"?>
<svg width="25px" height="25px" viewBox="0 0 25 25" version="1.1" xmlns="http://www.w3.org/2000/svg" xmlns:xlink="http://www.w3.org/1999/xlink">
    <!-- Generator: Sketch 52.2 (67145) - http://www.bohemiancoding.com/sketch -->
    <title>instagram</title>
    <desc>Created with Sketch.</desc>
    <g id="Page-1" stroke="none" stroke-width="1" fill="none" fill-rule="evenodd">
        <g id="Desktop---Product-Page" transform="translate(-297.000000, -1642.000000)" fill="#FFFFFF">
            <g id="footer-content" transform="translate(211.000000, 1524.000000)">
                <g id="company-info" transform="translate(0.000000, 5.000000)">
                    <g id="social" transform="translate(41.000000, 113.000000)">
                        <g id="instagram" transform="translate(45.000000, 0.000000)">
                            <path d="M17.5523652,0 L7.44763481,0 C3.34099166,0 0,3.34099166 0,7.44763481 L0,17.5523652 C0,21.6590083 3.34099166,25 7.44763481,25 L17.5523652,25 C21.6590083,25 25,21.6590083 25,17.5523652 L25,7.44763481 C24.9999546,3.34099166 21.658963,0 17.5523652,0 Z M22.4850009,17.5523652 C22.4850009,20.2765619 20.2765619,22.4850009 17.5523652,22.4850009 L7.44763481,22.4850009 C4.72343812,22.4850009 2.51499907,20.2765619 2.51499907,17.5523652 L2.51499907,7.44763481 C2.51499907,4.72339275 4.72343812,2.51499907 7.44763481,2.51499907 L17.5523652,2.51499907 C20.2765619,2.51499907 22.4850009,4.72339275 22.4850009,7.44763481 L22.4850009,17.5523652 Z" id="Shape" fill-rule="nonzero"></path>
                            <path d="M12.0192308,5.76923077 C8.57297523,5.76923077 5.76923077,8.57298507 5.76923077,12.0192088 C5.76923077,15.4654326 8.57297523,18.2692308 12.0192308,18.2692308 C15.4654863,18.2692308 18.2692308,15.4654765 18.2692308,12.0192088 C18.2692308,8.57294122 15.4654863,5.76923077 12.0192308,5.76923077 Z M12.0192308,15.8382403 C9.91005257,15.8382403 8.20025654,14.1284383 8.20025654,12.0192527 C8.20025654,9.91006709 9.91009642,8.20026507 12.0192308,8.20026507 C14.128409,8.20026507 15.838205,9.91006709 15.838205,12.0192527 C15.838205,14.1283944 14.1283651,15.8382403 12.0192308,15.8382403 Z" id="Shape" fill-rule="nonzero"></path>
                            <circle id="Oval" cx="18.75" cy="6.25" r="1.44230769"></circle>
                        </g>
                    </g>
                </g>
            </g>
        </g>
    </g>
</svg>