<?xml version="1.0" encoding="UTF-8"?>
<svg width="191px" height="24px" viewBox="0 0 191 24" version="1.1" xmlns="http://www.w3.org/2000/svg" xmlns:xlink="http://www.w3.org/1999/xlink">
    <!-- Generator: Sketch 52.2 (67145) - http://www.bohemiancoding.com/sketch -->
    <title>logo</title>
    <desc>Created with Sketch.</desc>
    <g id="Page-1" stroke="none" stroke-width="1" fill="none" fill-rule="evenodd">
        <g id="Desktop---Product-Page" transform="translate(-137.000000, -29.000000)">
            <g id="header">
                <g id="logo" transform="translate(137.000000, 29.000000)">
                    <path d="M40.023,1.397 L45.639,13.385 L51.201,1.397 L54.522,1.397 L56.79,20 L52.821,20 L51.525,8.849 L47.178,17.867 L44.127,17.867 L39.753,8.849 L38.43,20 L34.461,20 L36.756,1.397 L40.023,1.397 Z M67.806,14.06 L67.806,7.391 L71.559,7.391 L71.559,20 L67.806,20 L67.806,18.272 C67.158,19.487 65.808,20.27 64.539,20.27 C61.596,20.27 59.544,18.38 59.544,14.924 L59.544,7.391 L63.297,7.391 L63.297,14.114 C63.297,15.923 64.431,16.625 65.538,16.625 C66.834,16.625 67.806,15.815 67.806,14.06 Z M79.929,15.248 L78.282,14.816 C76.527,14.357 75.366,13.628 74.934,12.791 C74.529,11.927 74.475,11.495 74.502,10.712 C74.529,9.767 75.015,8.957 75.987,8.228 C76.959,7.499 78.093,7.121 79.416,7.121 C80.847,7.121 82.062,7.472 83.061,8.147 C84.06,8.822 84.573,9.875 84.6,11.306 L81.063,11.306 C81.036,10.577 80.577,10.199 79.632,10.199 C78.795,10.199 78.282,10.577 78.309,11.144 C78.336,11.603 78.714,11.9 79.416,12.089 L81.549,12.656 C82.494,12.899 83.223,13.304 83.763,13.817 C84.87,14.87 84.978,15.572 84.978,16.328 C84.978,17.597 84.438,18.569 83.331,19.244 C82.251,19.919 80.982,20.27 79.524,20.27 C78.147,20.27 76.905,19.892 75.852,19.109 C74.799,18.326 74.286,17.246 74.259,15.923 L77.769,15.923 C77.796,16.679 78.633,17.381 79.632,17.381 C80.496,17.354 81.171,16.949 81.171,16.328 C81.171,15.788 80.82,15.491 79.929,15.248 Z M87.624,7.391 L91.35,7.391 L91.35,20 L87.624,20 L87.624,7.391 Z M89.487,0.533 C90.756,0.533 91.782,1.505 91.782,2.72 C91.782,3.935 90.756,4.934 89.487,4.934 C88.191,4.934 87.138,3.935 87.138,2.72 C87.138,1.505 88.191,0.533 89.487,0.533 Z M100.908,7.121 C103.149,7.121 105.174,8.093 106.389,9.794 L103.338,11.981 C102.798,11.144 101.988,10.712 100.908,10.712 C100.071,10.712 99.342,10.982 98.721,11.549 C98.1,12.089 97.776,12.791 97.776,13.655 C97.776,14.546 98.1,15.275 98.721,15.842 C99.342,16.409 100.071,16.679 100.908,16.679 C101.988,16.679 102.798,16.247 103.338,15.41 L106.389,17.57 C105.201,19.271 103.176,20.27 100.908,20.27 C99.045,20.27 97.425,19.649 96.075,18.407 C94.725,17.165 94.05,15.572 94.05,13.655 C94.05,11.738 94.725,10.172 96.075,8.957 C97.425,7.742 99.045,7.121 100.908,7.121 Z" id="MusicMaker" fill="#EE4D24"></path>
                    <path d="M115.562,0.864 L121.178,12.852 L126.74,0.864 L130.061,0.864 L132.329,19.467 L128.36,19.467 L127.064,8.316 L122.717,17.334 L119.666,17.334 L115.292,8.316 L113.969,19.467 L110,19.467 L112.295,0.864 L115.562,0.864 Z M148.286,19.467 L144.56,19.467 L144.56,18.036 C144.209,18.576 143.642,18.981 142.886,19.278 C142.157,19.575 141.482,19.71 140.888,19.71 C139.187,19.71 137.702,19.116 136.406,17.901 C135.11,16.686 134.462,15.093 134.462,13.149 C134.462,11.205 135.11,9.639 136.406,8.424 C137.702,7.209 139.187,6.588 140.888,6.588 C142.076,6.588 143.696,7.047 144.56,8.262 L144.56,6.858 L148.286,6.858 L148.286,19.467 Z M141.509,16.146 C143.129,16.146 144.56,14.958 144.56,13.149 C144.56,11.34 143.129,10.152 141.509,10.152 C140.672,10.152 139.943,10.449 139.295,11.016 C138.674,11.583 138.35,12.285 138.35,13.149 C138.35,14.013 138.674,14.742 139.295,15.309 C139.943,15.876 140.672,16.146 141.509,16.146 Z M159.68,19.467 L155.468,14.472 L155.468,19.467 L151.742,19.467 L151.742,0 L155.468,0 L155.468,10.314 L158.465,6.858 L163.244,6.858 L158.006,12.42 L164.297,19.467 L159.68,19.467 Z M174.8,15.309 L177.527,17.172 C176.366,18.873 174.449,19.737 171.776,19.737 C169.913,19.737 168.347,19.116 167.078,17.901 C165.809,16.659 165.188,15.066 165.188,13.122 C165.188,11.178 165.809,9.612 167.078,8.397 C168.347,7.182 169.913,6.588 171.776,6.588 C173.612,6.588 175.151,7.209 176.366,8.451 C177.608,9.666 178.229,11.259 178.229,13.23 C178.229,13.581 178.202,13.959 178.175,14.391 L168.941,14.391 C169.13,15.768 170.561,16.497 172.046,16.497 C173.261,16.497 174.179,16.092 174.8,15.309 Z M168.995,12.042 L174.449,12.042 C174.071,9.18 169.589,9.153 168.995,12.042 Z M184.547,15.066 L184.547,19.467 L180.794,19.467 L180.794,6.858 L184.547,6.858 L184.547,9.909 C185.168,7.722 186.68,6.588 188.111,6.588 C188.948,6.588 189.65,6.75 190.271,7.047 L189.596,10.422 C189.083,10.179 188.435,10.044 187.679,10.044 C185.6,10.044 184.547,11.718 184.547,15.066 Z" id="MusicMaker" fill="#FFFFFF"></path>
                    <g id="icon" fill="#FFFFFF">
                        <path d="M18.972,0.0882 L8.973,3.1473 C7.7616,3.4929 6.7797,4.7565 6.7797,5.9679 L6.7797,16.3692 C6.7797,16.3692 6.7797,16.5114 6.7797,16.515 C6.7797,16.515 6.0552,16.0263 4.4415,16.2549 C2.0718,16.5915 0.1503,18.4104 0.1503,20.3184 C0.1503,22.2264 2.0718,23.3955 4.4415,23.0589 C6.813,22.7241 8.5509,20.961 8.5509,19.0521 C8.5509,19.0521 8.5509,10.8927 8.5509,10.0467 C8.5509,9.2007 9.5679,8.838 9.5679,8.838 L18.4086,6.0669 C18.4086,6.0669 19.3869,5.7384 19.3869,6.6438 C19.3869,7.5492 19.3869,13.8717 19.3869,13.8717 C19.3869,13.8717 19.3869,13.8735 19.3869,13.8771 C19.3869,13.8771 18.486,13.3587 16.8723,13.5549 C14.5026,13.842 12.5811,15.6231 12.5811,17.5302 C12.5811,19.4391 14.5026,20.6469 16.8723,20.3589 C19.2438,20.0718 21.1653,18.2916 21.1653,16.3827 L21.1653,1.656 C21.1653,0.4446 20.1825,-0.2574 18.972,0.0882 Z" id="Path"></path>
                    </g>
                </g>
            </g>
        </g>
    </g>
</svg>