<?xml version="1.0" encoding="UTF-8"?>
<svg width="25px" height="21px" viewBox="0 0 25 21" version="1.1" xmlns="http://www.w3.org/2000/svg" xmlns:xlink="http://www.w3.org/1999/xlink">
    <!-- Generator: Sketch 52.2 (67145) - http://www.bohemiancoding.com/sketch -->
    <title>twitter</title>
    <desc>Created with Sketch.</desc>
    <g id="Page-1" stroke="none" stroke-width="1" fill="none" fill-rule="evenodd">
        <g id="Desktop---Product-Page" transform="translate(-252.000000, -1644.000000)" fill="#FFFFFF">
            <g id="footer-content" transform="translate(211.000000, 1524.000000)">
                <g id="company-info" transform="translate(0.000000, 5.000000)">
                    <g id="social" transform="translate(41.000000, 113.000000)">
                        <g id="twitter" transform="translate(0.000000, 2.000000)">
                            <path d="M25,2.48607692 C24.0703125,2.90769231 23.0796875,3.18715385 22.046875,3.32284615 C23.109375,2.667 23.9203125,1.63638462 24.3015625,0.394153846 C23.3109375,1.00476923 22.2171875,1.43607692 21.0515625,1.67676923 C20.1109375,0.641307692 18.7703125,0 17.3078125,0 C14.4703125,0 12.1859375,2.38107692 12.1859375,5.30007692 C12.1859375,5.72007692 12.2203125,6.12392308 12.3046875,6.50838462 C8.04375,6.29353846 4.2734375,4.18223077 1.740625,0.966 C1.2984375,1.75915385 1.0390625,2.667 1.0390625,3.64430769 C1.0390625,5.47938462 1.953125,7.10607692 3.315625,8.04784615 C2.4921875,8.03169231 1.684375,7.78453846 1,7.39523077 C1,7.41138462 1,7.43238462 1,7.45338462 C1,10.0283077 2.7765625,12.1670769 5.10625,12.6597692 C4.6890625,12.7776923 4.234375,12.8342308 3.7625,12.8342308 C3.434375,12.8342308 3.103125,12.8148462 2.7921875,12.7437692 C3.45625,14.8421538 5.340625,16.3848462 7.58125,16.4349231 C5.8375,17.8451538 3.6234375,18.6948462 1.2265625,18.6948462 C0.80625,18.6948462 0.403125,18.6754615 0,18.6221538 C2.2703125,20.1357692 4.9609375,21 7.8625,21 C17.29375,21 22.45,12.9230769 22.45,5.922 C22.45,5.68776923 22.4421875,5.46161538 22.43125,5.23707692 C23.4484375,4.49076923 24.303125,3.55869231 25,2.48607692 Z" id="Path"></path>
                        </g>
                    </g>
                </g>
            </g>
        </g>
    </g>
</svg>